dataset
version=1
nRows=25
nColumns=39
inDegrees=no
endheader
time	sternoclavicular_r2	sternoclavicular_r3	unrotscap_r3	unrotscap_r2	acromioclavicular_r2	acromioclavicular_r3	acromioclavicular_r1	unrothum_r1	unrothum_r3	unrothum_r2	elv_angle	shoulder_elv	shoulder1_r2	shoulder_rot	elbow_flexion	pro_sup	deviation	flexion	cmc_abduction	cmc_flexion	mp_flexion	ip_flexion	mcp2_flexion	mcp2_abduction	pm2_flexion	md2_flexion	mcp3_flexion	mcp3_abduction	pm3_flexion	md3_flexion	mcp4_flexion	mcp4_abduction	pm4_flexion	md4_flexion	mcp5_flexion	mcp5_abduction	pm5_flexion	md5_flexion
1.855000	0.033462	-0.376903	0.201995	0.086010	-0.006725	0.458432	0.054553	0.161548	0.367082	-0.006653	0.118788	0.027437	0.146525	0.146525	1.851097	1.300321	0.000000	0.000000	0.000000	0.000000	0.000000	0.000000	0.000000	0.000000	0.000000	0.000000	0.000000	0.000000	0.000000	0.000000	0.000000	0.000000	0.000000	0.000000	0.000000	0.000000	0.000000	0.000000
1.860000	0.033402	-0.376825	0.201698	0.086158	-0.006547	0.458277	0.054841	0.161607	0.367105	-0.006595	0.118863	0.027437	0.146525	0.146525	1.860469	1.299741	0.000000	0.000000	0.000000	0.000000	0.000000	0.000000	0.000000	0.000000	0.000000	0.000000	0.000000	0.000000	0.000000	0.000000	0.000000	0.000000	0.000000	0.000000	0.000000	0.000000	0.000000	0.000000
1.865000	0.033329	-0.376716	0.201358	0.086320	-0.006360	0.458142	0.055197	0.161658	0.367200	-0.006534	0.118962	0.027437	0.146525	0.146525	1.869666	1.299172	0.000000	0.000000	0.000000	0.000000	0.000000	0.000000	0.000000	0.000000	0.000000	0.000000	0.000000	0.000000	0.000000	0.000000	0.000000	0.000000	0.000000	0.000000	0.000000	0.000000	0.000000	0.000000
1.870000	0.033244	-0.376576	0.200975	0.086495	-0.006164	0.458027	0.055621	0.161701	0.367369	-0.006471	0.119086	0.027437	0.146525	0.146525	1.878684	1.298614	0.000000	0.000000	0.000000	0.000000	0.000000	0.000000	0.000000	0.000000	0.000000	0.000000	0.000000	0.000000	0.000000	0.000000	0.000000	0.000000	0.000000	0.000000	0.000000	0.000000	0.000000	0.000000
1.875000	0.033145	-0.376403	0.200548	0.086685	-0.005960	0.457934	0.056113	0.161737	0.367611	-0.006406	0.119233	0.027437	0.146525	0.146525	1.887526	1.298067	0.000000	0.000000	0.000000	0.000000	0.000000	0.000000	0.000000	0.000000	0.000000	0.000000	0.000000	0.000000	0.000000	0.000000	0.000000	0.000000	0.000000	0.000000	0.000000	0.000000	0.000000	0.000000
1.880000	0.033032	-0.376198	0.200079	0.086888	-0.005748	0.457861	0.056674	0.161764	0.367927	-0.006339	0.119405	0.027437	0.146525	0.146525	1.896190	1.297533	0.000000	0.000000	0.000000	0.000000	0.000000	0.000000	0.000000	0.000000	0.000000	0.000000	0.000000	0.000000	0.000000	0.000000	0.000000	0.000000	0.000000	0.000000	0.000000	0.000000	0.000000	0.000000
1.885000	0.032905	-0.375961	0.199566	0.087105	-0.005528	0.457810	0.057304	0.161784	0.368317	-0.006271	0.119600	0.027437	0.146525	0.146525	1.904677	1.297009	0.000000	0.000000	0.000000	0.000000	0.000000	0.000000	0.000000	0.000000	0.000000	0.000000	0.000000	0.000000	0.000000	0.000000	0.000000	0.000000	0.000000	0.000000	0.000000	0.000000	0.000000	0.000000
1.890000	0.032763	-0.375691	0.199010	0.087334	-0.005299	0.457781	0.058001	0.161795	0.368780	-0.006202	0.119819	0.027437	0.146525	0.146525	1.912986	1.296498	0.000000	0.000000	0.000000	0.000000	0.000000	0.000000	0.000000	0.000000	0.000000	0.000000	0.000000	0.000000	0.000000	0.000000	0.000000	0.000000	0.000000	0.000000	0.000000	0.000000	0.000000	0.000000
1.895000	0.032607	-0.375388	0.198412	0.087577	-0.005064	0.457773	0.058767	0.161799	0.369316	-0.006131	0.120062	0.027437	0.146525	0.146525	1.921119	1.295998	0.000000	0.000000	0.000000	0.000000	0.000000	0.000000	0.000000	0.000000	0.000000	0.000000	0.000000	0.000000	0.000000	0.000000	0.000000	0.000000	0.000000	0.000000	0.000000	0.000000	0.000000	0.000000
1.900000	0.032437	-0.375053	0.197771	0.087832	-0.004821	0.457787	0.059600	0.161795	0.369926	-0.006060	0.120327	0.027437	0.146525	0.146525	1.929075	1.295510	0.000000	0.000000	0.000000	0.000000	0.000000	0.000000	0.000000	0.000000	0.000000	0.000000	0.000000	0.000000	0.000000	0.000000	0.000000	0.000000	0.000000	0.000000	0.000000	0.000000	0.000000	0.000000
1.905000	0.032251	-0.374685	0.197088	0.088100	-0.004571	0.457824	0.060500	0.161784	0.370609	-0.005988	0.120614	0.027437	0.146525	0.146525	1.936856	1.295034	0.000000	0.000000	0.000000	0.000000	0.000000	0.000000	0.000000	0.000000	0.000000	0.000000	0.000000	0.000000	0.000000	0.000000	0.000000	0.000000	0.000000	0.000000	0.000000	0.000000	0.000000	0.000000
1.910000	0.032051	-0.374284	0.196364	0.088380	-0.004314	0.457883	0.061466	0.161766	0.371363	-0.005916	0.120924	0.027437	0.146525	0.146525	1.944461	1.294570	0.000000	0.000000	0.000000	0.000000	0.000000	0.000000	0.000000	0.000000	0.000000	0.000000	0.000000	0.000000	0.000000	0.000000	0.000000	0.000000	0.000000	0.000000	0.000000	0.000000	0.000000	0.000000
1.915000	0.031835	-0.373851	0.195600	0.088673	-0.004050	0.457965	0.062497	0.161741	0.372188	-0.005843	0.121256	0.027437	0.146525	0.146525	1.951894	1.294117	0.000000	0.000000	0.000000	0.000000	0.000000	0.000000	0.000000	0.000000	0.000000	0.000000	0.000000	0.000000	0.000000	0.000000	0.000000	0.000000	0.000000	0.000000	0.000000	0.000000	0.000000	0.000000
1.920000	0.031604	-0.373386	0.194797	0.088977	-0.003780	0.458071	0.063593	0.161710	0.373084	-0.005771	0.121609	0.027437	0.146525	0.146525	1.959153	1.293676	0.000000	0.000000	0.000000	0.000000	0.000000	0.000000	0.000000	0.000000	0.000000	0.000000	0.000000	0.000000	0.000000	0.000000	0.000000	0.000000	0.000000	0.000000	0.000000	0.000000	0.000000	0.000000
1.925000	0.031357	-0.372889	0.193955	0.089293	-0.003504	0.458199	0.064752	0.161674	0.374049	-0.005699	0.121983	0.027437	0.146525	0.146525	1.966241	1.293247	0.000000	0.000000	0.000000	0.000000	0.000000	0.000000	0.000000	0.000000	0.000000	0.000000	0.000000	0.000000	0.000000	0.000000	0.000000	0.000000	0.000000	0.000000	0.000000	0.000000	0.000000	0.000000
1.930000	0.031096	-0.372362	0.193075	0.089621	-0.003222	0.458352	0.065973	0.161633	0.375083	-0.005628	0.122377	0.027437	0.146525	0.146525	1.973159	1.292830	0.000000	0.000000	0.000000	0.000000	0.000000	0.000000	0.000000	0.000000	0.000000	0.000000	0.000000	0.000000	0.000000	0.000000	0.000000	0.000000	0.000000	0.000000	0.000000	0.000000	0.000000	0.000000
1.935000	0.030819	-0.371804	0.192159	0.089960	-0.002935	0.458528	0.067255	0.161588	0.376183	-0.005558	0.122790	0.027437	0.146525	0.146525	1.979909	1.292425	0.000000	0.000000	0.000000	0.000000	0.000000	0.000000	0.000000	0.000000	0.000000	0.000000	0.000000	0.000000	0.000000	0.000000	0.000000	0.000000	0.000000	0.000000	0.000000	0.000000	0.000000	0.000000
1.940000	0.030526	-0.371217	0.191208	0.090310	-0.002642	0.458729	0.068596	0.161539	0.377349	-0.005490	0.123223	0.027437	0.146525	0.146525	1.986493	1.292031	0.000000	0.000000	0.000000	0.000000	0.000000	0.000000	0.000000	0.000000	0.000000	0.000000	0.000000	0.000000	0.000000	0.000000	0.000000	0.000000	0.000000	0.000000	0.000000	0.000000	0.000000	0.000000
1.945000	0.030219	-0.370600	0.190222	0.090671	-0.002344	0.458954	0.069995	0.161487	0.378579	-0.005423	0.123674	0.027437	0.146525	0.146525	1.992912	1.291648	0.000000	0.000000	0.000000	0.000000	0.000000	0.000000	0.000000	0.000000	0.000000	0.000000	0.000000	0.000000	0.000000	0.000000	0.000000	0.000000	0.000000	0.000000	0.000000	0.000000	0.000000	0.000000
1.950000	0.029897	-0.369956	0.189205	0.091042	-0.002041	0.459204	0.071450	0.161433	0.379871	-0.005358	0.124143	0.027437	0.146525	0.146525	1.999168	1.291277	0.000000	0.000000	0.000000	0.000000	0.000000	0.000000	0.000000	0.000000	0.000000	0.000000	0.000000	0.000000	0.000000	0.000000	0.000000	0.000000	0.000000	0.000000	0.000000	0.000000	0.000000	0.000000
1.955000	0.029560	-0.369284	0.188156	0.091424	-0.001733	0.459479	0.072960	0.161378	0.381225	-0.005296	0.124628	0.027437	0.146525	0.146525	2.005265	1.290917	0.000000	0.000000	0.000000	0.000000	0.000000	0.000000	0.000000	0.000000	0.000000	0.000000	0.000000	0.000000	0.000000	0.000000	0.000000	0.000000	0.000000	0.000000	0.000000	0.000000	0.000000	0.000000
1.960000	0.029208	-0.368585	0.187077	0.091816	-0.001421	0.459778	0.074523	0.161322	0.382638	-0.005236	0.125130	0.027437	0.146525	0.146525	2.011203	1.290568	0.000000	0.000000	0.000000	0.000000	0.000000	0.000000	0.000000	0.000000	0.000000	0.000000	0.000000	0.000000	0.000000	0.000000	0.000000	0.000000	0.000000	0.000000	0.000000	0.000000	0.000000	0.000000
1.965000	0.028842	-0.367861	0.185970	0.092218	-0.001105	0.460103	0.076136	0.161267	0.384107	-0.005179	0.125647	0.027437	0.146525	0.146525	2.016985	1.290230	0.000000	0.000000	0.000000	0.000000	0.000000	0.000000	0.000000	0.000000	0.000000	0.000000	0.000000	0.000000	0.000000	0.000000	0.000000	0.000000	0.000000	0.000000	0.000000	0.000000	0.000000	0.000000
1.970000	0.028461	-0.367113	0.184837	0.092630	-0.000786	0.460454	0.077799	0.161212	0.385633	-0.005126	0.126178	0.027437	0.146525	0.146525	2.022615	1.289903	0.000000	0.000000	0.000000	0.000000	0.000000	0.000000	0.000000	0.000000	0.000000	0.000000	0.000000	0.000000	0.000000	0.000000	0.000000	0.000000	0.000000	0.000000	0.000000	0.000000	0.000000	0.000000
1.975000	0.028067	-0.366342	0.183679	0.093050	-0.000463	0.460830	0.079508	0.161160	0.387211	-0.005076	0.126724	0.027437	0.146525	0.146525	2.028094	1.289586	0.000000	0.000000	0.000000	0.000000	0.000000	0.000000	0.000000	0.000000	0.000000	0.000000	0.000000	0.000000	0.000000	0.000000	0.000000	0.000000	0.000000	0.000000	0.000000	0.000000	0.000000	0.000000
